<?xml version="1.0" encoding="iso-8859-1"?>
<!-- Generator: Adobe Illustrator 18.0.0, SVG Export Plug-In . SVG Version: 6.00 Build 0)  -->
<!DOCTYPE svg PUBLIC "-//W3C//DTD SVG 1.1//EN" "http://www.w3.org/Graphics/SVG/1.1/DTD/svg11.dtd">
<svg xmlns="http://www.w3.org/2000/svg" xmlns:xlink="http://www.w3.org/1999/xlink" version="1.1" id="Capa_1" x="0px" y="0px" viewBox="0 0 297 297" style="enable-background:new 0 0 297 297;" xml:space="preserve">
<g>
	<g>
		<path d="M188.501,217.342v55.609c0,1.158,0.635,2.219,1.657,2.766c1.004,0.537,2.274,0.473,3.219-0.156l20.084-13.389    c2.459-1.639,5.661-1.639,8.121,0l20.082,13.389c0.945,0.631,2.221,0.693,3.218,0.156c1.024-0.547,1.659-1.607,1.659-2.766    v-55.609c-8.466,5.168-18.401,8.148-29.02,8.148C206.903,225.49,196.967,222.51,188.501,217.342z" fill="#FF6B00"/>
	</g>
	<g>
		<path d="M270.855,20.92H26.144C11.728,20.92,0,32.646,0,47.064v175.688c0,14.416,11.728,26.145,26.144,26.145H173.86v-44.475    c-7.68-9.6-12.288-21.77-12.288-35.002c0-30.918,25.099-56.07,55.949-56.07c30.85,0,55.948,25.152,55.948,56.07    c0,13.232-4.608,25.402-12.287,35.002v44.475h9.673c14.416,0,26.145-11.729,26.145-26.145V47.064    C297,32.646,285.271,20.92,270.855,20.92z M133.814,160.529H30.282c-4.62,0-8.366-3.746-8.366-8.365    c0-4.621,3.746-8.367,8.366-8.367h103.532c4.62,0,8.366,3.746,8.366,8.367C142.181,156.783,138.435,160.529,133.814,160.529z     M133.814,126.019H30.282c-4.62,0-8.366-3.746-8.366-8.365c0-4.621,3.746-8.367,8.366-8.367h103.532    c4.62,0,8.366,3.746,8.366,8.367C142.181,122.273,138.435,126.019,133.814,126.019z M133.814,91.51H30.282    c-4.62,0-8.366-3.746-8.366-8.367c0-4.619,3.746-8.365,8.366-8.365h103.532c4.62,0,8.366,3.746,8.366,8.365    C142.181,87.764,138.435,91.51,133.814,91.51z" fill="#FF6B00"/>
	</g>
	<g>
		<path d="M217.521,127.99c-22.777,0-41.309,18.586-41.309,41.43c0,22.846,18.531,41.43,41.309,41.43    c22.776,0,41.308-18.584,41.308-41.43C258.829,146.576,240.298,127.99,217.521,127.99z" fill="#FF6B00"/>
	</g>
</g>
</svg>
