<?xml version="1.0" encoding="iso-8859-1"?>
<!-- Generator: Adobe Illustrator 18.0.0, SVG Export Plug-In . SVG Version: 6.00 Build 0)  -->
<!DOCTYPE svg PUBLIC "-//W3C//DTD SVG 1.1//EN" "http://www.w3.org/Graphics/SVG/1.1/DTD/svg11.dtd">
<svg xmlns="http://www.w3.org/2000/svg" xmlns:xlink="http://www.w3.org/1999/xlink" version="1.1" id="Capa_1" x="0px" y="0px" viewBox="0 0 297 297" style="enable-background:new 0 0 297 297;" xml:space="preserve">
<g>
	<path d="M148.497,83.312c-35.822,0-64.966,29.243-64.966,65.188s29.144,65.189,64.966,65.189c35.826,0,64.972-29.243,64.972-65.189   S184.323,83.312,148.497,83.312z" fill="#FF6B00"/>
	<path d="M293.452,140.717l-27.319-23.743l11.803-34.226c0.975-2.825,0.675-5.934-0.82-8.522c-1.495-2.587-4.04-4.398-6.974-4.965   L234.6,62.4l-6.861-35.541c-0.566-2.936-2.378-5.479-4.966-6.975c-2.587-1.494-5.696-1.793-8.522-0.82l-34.223,11.803   L156.284,3.548C154.325,1.294,151.486,0,148.5,0s-5.825,1.294-7.784,3.548l-23.743,27.319L82.75,19.065   c-2.823-0.975-5.934-0.676-8.522,0.82c-2.588,1.496-4.399,4.039-4.966,6.975L62.4,62.399l-35.542,6.861   c-2.935,0.566-5.479,2.378-6.974,4.965c-1.495,2.589-1.795,5.697-0.82,8.522l11.803,34.226L3.548,140.717   C1.294,142.675,0,145.514,0,148.5s1.294,5.825,3.548,7.783l27.319,23.745L19.065,214.25c-0.976,2.826-0.676,5.936,0.819,8.523   c1.495,2.588,4.039,4.399,6.974,4.966l35.541,6.862l6.862,35.54c0.566,2.936,2.378,5.479,4.966,6.975s5.697,1.797,8.522,0.82   l34.223-11.803l23.743,27.319c1.959,2.254,4.798,3.548,7.784,3.548s5.825-1.294,7.784-3.548l23.743-27.319l34.223,11.803   c2.826,0.975,5.934,0.676,8.523-0.82c2.587-1.496,4.398-4.039,4.965-6.975l6.861-35.54l35.542-6.861   c2.935-0.566,5.478-2.378,6.974-4.965c1.495-2.589,1.795-5.697,0.82-8.522l-11.803-34.226l27.319-23.743   c2.254-1.958,3.548-4.797,3.548-7.783S295.706,142.675,293.452,140.717z M148.497,228.126c-43.783,0-79.403-35.72-79.403-79.626   c0-43.906,35.62-79.626,79.403-79.626c43.787,0,79.409,35.72,79.409,79.626C227.906,192.406,192.284,228.126,148.497,228.126z" fill="#FF6B00"/>
</g>
</svg>
